<?xml version="1.0" standalone="no"?>
<!DOCTYPE svg PUBLIC "-//W3C//DTD SVG 20010904//EN"
 "http://www.w3.org/TR/2001/REC-SVG-20010904/DTD/svg10.dtd">
<svg version="1.0" xmlns="http://www.w3.org/2000/svg"
 width="16.000000pt" height="16.000000pt" viewBox="0 0 16.000000 16.000000"
 preserveAspectRatio="xMidYMid meet">
<metadata>
Created by potrace 1.11, written by Peter Selinger 2001-2013
</metadata>
<g transform="translate(0.000000,16.000000) scale(0.003125,-0.003125)"
fill="#000000" stroke="none">
<path d="M535 4959 c-72 -3 -146 -11 -165 -19 -103 -39 -187 -138 -204 -240
-7 -45 -7 -3274 0 -3319 19 -115 124 -225 239 -251 48 -11 4229 -14 4295 -4
117 19 235 137 254 254 9 57 6 3292 -3 3330 -19 83 -92 179 -163 214 -72 37
-99 37 -2128 39 -1097 1 -2053 -1 -2125 -4z m3785 -1759 l0 -1120 -1760 0
-1760 0 0 1120 0 1120 1760 0 1760 0 0 -1120z"/>
<path d="M2546 3982 c-3 -9 -17 -80 -31 -157 -14 -77 -30 -160 -35 -185 -11
-53 -19 -94 -26 -135 -3 -16 -12 -65 -20 -108 -9 -42 -17 -90 -20 -105 -2 -15
-9 -49 -14 -77 -5 -27 -12 -65 -15 -84 -3 -19 -7 -37 -9 -40 -2 -3 -7 -31 -11
-61 -4 -30 -9 -58 -11 -61 -2 -3 -5 -19 -8 -35 -23 -127 -56 -303 -61 -324 -9
-40 -18 -103 -19 -129 -1 -23 4 -25 149 -52 83 -15 153 -24 156 -21 3 4 11 36
17 72 6 36 20 115 32 175 12 61 25 133 30 160 5 28 29 156 54 285 25 129 47
249 50 265 3 17 8 41 11 55 5 24 9 48 20 108 2 15 14 77 25 137 12 61 23 121
26 135 2 14 9 49 15 77 11 58 7 73 -21 73 -10 0 -65 9 -122 20 -57 11 -115 22
-130 24 -19 4 -28 1 -32 -12z"/>
<path d="M1517 3518 c-394 -317 -398 -320 -375 -336 13 -9 28 -21 34 -27 6 -5
28 -23 49 -40 117 -92 159 -126 226 -180 41 -33 81 -65 89 -72 8 -6 47 -37 85
-68 39 -31 104 -83 145 -115 41 -33 92 -73 112 -90 l37 -31 53 68 c117 147
138 175 138 183 0 5 -49 48 -110 96 -60 48 -110 91 -110 96 0 4 -5 8 -11 8
-18 0 -98 73 -92 83 3 6 2 7 -4 4 -8 -5 -62 33 -142 99 -6 5 53 53 66 54 6 0
13 4 15 9 2 6 39 39 83 76 44 36 89 73 101 83 11 9 62 51 112 92 51 41 92 80
92 86 0 5 -8 19 -19 30 -10 11 -34 40 -52 65 -42 54 -67 84 -99 120 l-25 27
-398 -320z"/>
<path d="M3106 3720 c-53 -66 -96 -124 -96 -128 0 -5 105 -94 234 -198 129
-104 235 -191 235 -194 0 -3 -35 -33 -77 -66 -79 -64 -288 -233 -354 -287 -43
-35 -45 -45 -20 -73 16 -17 86 -104 104 -129 5 -5 23 -27 40 -47 l33 -38 130
106 c72 58 248 200 393 316 144 116 262 214 262 219 0 5 -24 27 -52 50 -29 22
-62 48 -73 57 -11 10 -40 33 -65 52 -25 19 -50 39 -56 45 -6 5 -28 24 -48 40
-21 17 -66 52 -100 78 -33 27 -70 56 -81 65 -11 10 -56 46 -100 80 -44 35 -89
71 -100 80 -11 10 -42 34 -67 55 l-47 37 -95 -120z"/>
<path d="M1894 768 c-34 -39 -95 -131 -112 -172 -52 -120 0 -296 111 -377 82
-59 90 -60 688 -57 529 3 545 4 589 24 114 53 187 169 187 294 0 99 -28 160
-132 288 l-27 32 -637 0 -638 0 -29 -32z"/>
</g>
</svg>
